<?xml version="1.0" encoding="UTF-8"?>
<svg width="192px" height="94px" viewBox="0 0 192 94" version="1.1" xmlns="http://www.w3.org/2000/svg" xmlns:xlink="http://www.w3.org/1999/xlink">
    <!-- Generator: Sketch 51.2 (57519) - http://www.bohemiancoding.com/sketch -->
    <title>Sioux Steel Logo - Full COlor</title>
    <desc>Created with Sketch.</desc>
    <defs>
        <polygon id="path-1" points="4.84848485e-05 0.0835824742 191.797624 0.0835824742 191.797624 93.7577077 4.84848485e-05 93.7577077"></polygon>
        <polygon id="path-3" points="0 93.9164175 191.797818 93.9164175 191.797818 0.242268041 0 0.242268041"></polygon>
    </defs>
    <g id="Symbols" stroke="none" stroke-width="1" fill="none" fill-rule="evenodd">
        <g id="Masthead-(Desktop)" transform="translate(-230.000000, -21.000000)">
            <g id="Masthead">
                <g id="Sioux-Steel-Logo---Full-COlor" transform="translate(230.000000, 21.000000)">
                    <g id="Group">
                        <path d="M0.188436364,47.0764598 C0.188436364,21.316099 43.0388606,0.430413402 95.9018909,0.430413402 C148.758861,0.430413402 191.609285,21.316099 191.609285,47.0764598 C191.609285,72.8438464 148.758861,93.7280784 95.9018909,93.7280784 C43.0388606,93.7280784 0.188436364,72.8438464 0.188436364,47.0764598" id="Fill-1" fill="#000000"></path>
                        <g id="Group-5" transform="translate(0.000000, 0.158686)">
                            <mask id="mask-2" fill="white">
                                <use xlink:href="#path-1"></use>
                            </mask>
                            <g id="Clip-4"></g>
                            <path d="M95.9018667,0.460042784 C43.2291394,0.460042784 0.376775758,21.3009088 0.376775758,46.9178469 C0.376775758,72.5376923 43.2291394,93.3809809 95.9018667,93.3809809 C148.5712,93.3809809 191.420897,72.5376923 191.420897,46.9178469 C191.420897,21.3009088 148.5712,0.460042784 95.9018667,0.460042784 M95.9018667,93.7577077 C70.3064727,93.7577077 46.2412606,88.8985376 28.1389576,80.0753778 C9.99326061,71.231383 4.84848485e-05,59.4557026 4.84848485e-05,46.9178469 C4.84848485e-05,34.3826562 9.99326061,22.6091562 28.1389576,13.7654036 C46.2422303,4.94248608 70.3074424,0.0835582474 95.9018667,0.0835582474 C121.493624,0.0835582474 145.557139,4.94248608 163.659442,13.7654036 C181.804655,22.6091562 191.797624,34.3828985 191.797624,46.9178469 C191.797624,59.4554603 181.804655,71.231383 163.659442,80.0753778 C145.558109,88.8985376 121.494352,93.7577077 95.9018667,93.7577077" id="Fill-3" fill="#000000" mask="url(#mask-2)"></path>
                        </g>
                        <path d="M5.97064242,47.0764598 C5.97064242,24.0263515 46.2336727,5.34094433 95.9017939,5.34094433 C145.565794,5.34094433 185.825673,24.0263515 185.825673,47.0764598 C185.825673,70.1297175 145.565794,88.8170629 95.9017939,88.8170629 C46.2336727,88.8170629 5.97064242,70.1297175 5.97064242,47.0764598" id="Fill-6" fill="#FFD911"></path>
                        <path d="M95.9018667,6.17776237 C71.9993212,6.17776237 49.540897,10.4913448 32.6635636,18.3238706 C15.9903515,26.0616696 6.80804848,36.272783 6.80804848,47.076484 C6.80804848,57.8816387 15.9903515,68.0939634 32.6635636,75.8327314 C49.540897,83.6662263 71.9993212,87.980051 95.9018667,87.980051 C119.802473,87.980051 142.258958,83.6662263 159.134836,75.8327314 C175.806594,68.0939634 184.98817,57.8816387 184.98817,47.076484 C184.98817,36.272783 175.806594,26.0616696 159.135079,18.3238706 C142.258958,10.4913448 119.80223,6.17776237 95.9018667,6.17776237 M95.9018667,89.6538809 C71.7607758,89.6538809 49.0516848,85.2843345 31.9578667,77.3505407 C14.6596848,69.3220201 5.13338182,58.5704067 5.13338182,47.076484 C5.13338182,35.5840149 14.6596848,24.8336129 31.9578667,16.8060613 C49.0519273,8.87299433 71.7607758,4.50417474 95.9018667,4.50417474 C120.040776,4.50417474 142.747927,8.87299433 159.840291,16.8060613 C177.137261,24.8338552 186.663079,35.5840149 186.663079,47.076484 C186.663079,58.5704067 177.137261,69.3220201 159.840533,77.3505407 C142.747927,85.2843345 120.040776,89.6538809 95.9018667,89.6538809" id="Fill-8" fill="#FFFFFF"></path>
                        <path d="M55.0282909,44.960418 C55.4496242,45.866016 55.6801697,46.920851 55.6801697,48.1479387 C55.6801697,54.4597479 49.661503,57.5842789 43.6782303,57.5842789 C40.1926545,57.5842789 36.1531394,56.6677789 33.0358061,55.1630521 L36.1179879,47.6898098 L36.6324121,48.0757428 C38.4309576,49.4101552 40.5962909,50.4972119 42.9080485,50.4972119 C43.8985939,50.4972119 45.4782303,50.1083716 45.4782303,48.9202892 C45.4782303,47.7259077 44.1562909,47.6202789 43.2392,47.4475418 L41.2205333,47.0947995 C39.2913212,46.7645881 37.5150788,46.0685521 36.2045333,44.9526655 C35.677503,44.5049541 35.2285333,43.9908613 34.8765333,43.408449 C34.3131394,42.478382 33.9899879,41.3702479 33.9899879,40.0789593 C33.9899879,33.800583 39.9722909,30.2956912 45.9909576,30.2956912 C49.1463515,30.2956912 52.045503,31.0283098 54.7630788,32.6105624 L52.045503,39.3802582 C50.3216242,38.2541964 48.3766545,37.379851 46.2115636,37.379851 C45.3301091,37.379851 44.0452606,37.6943149 44.0452606,38.7842789 C44.0452606,39.7635263 45.2937455,39.9050108 46.064897,40.0789593 L48.3388364,40.5693098 C50.6588364,41.0654747 52.6307152,41.9400624 53.9444121,43.3529696 C54.3834424,43.8266036 54.7475636,44.3610469 55.0282909,44.960418" id="Fill-10" fill="#000000"></path>
                        <path d="M71.0873697,43.4152325 C71.0822788,43.6109851 71.0754909,43.8094026 71.0754909,44.0092737 C71.0754909,44.3271294 71.0851879,44.6415933 71.1038545,44.9526655 M71.0873697,43.4152325 C71.4054303,35.4426758 78.1758545,30.2956912 86.3816727,30.2956912 C94.584097,30.2956912 101.355006,35.4426758 101.677673,43.4152325 C101.683733,43.6109851 101.689794,43.8094026 101.689794,44.0092737 C101.689794,44.3375469 101.67937,44.663882 101.656824,44.986583 C101.150642,52.8874284 94.4973091,57.5842789 86.3816727,57.5842789 C78.2568242,57.5842789 71.5964606,52.8709541 71.1038545,44.9526655 M91.5070061,43.4142634 C91.1928242,40.9448253 89.2931879,38.9933562 86.3816727,38.9933562 C83.4873697,38.9933562 81.5843394,40.9268974 81.2570667,43.3815572 C81.2238545,43.6306088 81.2042182,43.8878974 81.2042182,44.1483356 C81.2042182,44.4342119 81.2260364,44.7142737 81.2628848,44.9834335 C81.6209455,47.5405727 83.6260364,49.233784 86.3816727,49.233784 C89.1385212,49.233784 91.1416727,47.5405727 91.4968242,44.986583 C91.5348848,44.7176655 91.5576727,44.4373613 91.5576727,44.1483356 C91.5576727,43.9000108 91.5428848,43.6555624 91.5070061,43.4142634" id="Fill-12" fill="#000000"></path>
                        <path d="M129.937624,44.9525928 L129.937624,46.3570206 C129.937624,54.0756804 124.872655,57.5842062 117.129139,57.5842062 C109.384655,57.5842062 104.32017,54.0756804 104.32017,46.3570206 L104.32017,44.9525928 L104.32017,43.3851186 L104.32017,30.7161959 L114.37617,30.7161959 L114.37617,43.4202474 L114.37617,44.9525928 L114.37617,45.4458505 C114.37617,47.5131237 114.448897,49.3361907 117.129139,49.3361907 C119.808655,49.3361907 119.882836,47.5131237 119.882836,45.4458505 L119.882836,44.9867526 L119.882836,43.4202474 L119.882836,30.7161959 L129.937624,30.7161959 L129.937624,43.4202474 L129.937624,44.9525928 Z" id="Fill-14" fill="#000000"></path>
                        <path d="M152.535855,43.420199 L152.307006,43.0950753 L160.966158,30.7161474 L149.626764,30.7161474 L147.716945,34.4674258 C147.353552,35.1697608 147.021673,35.866766 146.838642,36.6400856 L146.619976,36.6400856 C146.396461,35.9055289 146.176339,35.1697608 145.775612,34.4674258 L143.716703,30.7161474 L132.374642,30.7161474 L141.072582,43.0950753 L140.83743,43.4374 L139.786764,44.9644155 L131.384582,57.1621268 L142.838642,57.1621268 L145.920339,51.7610031 C146.249067,51.1655082 146.509673,50.5680753 146.688339,49.9347866 L146.982885,49.9347866 C147.097794,50.497333 147.278158,51.0189361 147.572703,51.5499876 L150.727127,57.1621268 L162.179733,57.1621268 L153.610764,44.9525443 L152.535855,43.420199 Z" id="Fill-16" fill="#000000"></path>
                        <polyline id="Fill-18" fill="#000000" points="68.7523636 43.420199 68.7523636 30.7161474 58.6956364 30.7161474 58.6956364 43.3850701 58.6956364 44.9525443 58.6956364 57.1621268 68.7523636 57.1621268 68.7523636 44.9867041"></polyline>
                        <path d="M96.4539636,74.1833948 C95.3349333,74.1833948 94.423903,73.3388485 94.423903,72.1292041 C94.423903,70.9198021 95.3349333,70.0752557 96.4539636,70.0752557 C97.5482667,70.0752557 98.4786909,70.9198021 98.4786909,72.1292041 C98.4786909,73.3388485 97.5482667,74.1833948 96.4539636,74.1833948 Z M96.4539636,74.8883948 C97.9960242,74.8883948 99.4491152,73.8815289 99.4491152,72.1292041 C99.4491152,70.3771216 97.9960242,69.3683175 96.4539636,69.3683175 C94.9014788,69.3683175 93.4580848,70.3771216 93.4580848,72.1292041 C93.4580848,73.8815289 94.9014788,74.8883948 96.4539636,74.8883948 Z M96.0326303,71.8440546 L96.0326303,71.1584361 L96.4304485,71.1584361 C96.6636606,71.1584361 97.0122667,71.1778175 97.0122667,71.4687814 C97.0122667,71.7791268 96.8571152,71.8440546 96.5834182,71.8440546 L96.0326303,71.8440546 Z M96.0326303,72.3719567 L96.2260848,72.3719567 L96.9422061,73.6208485 L97.6808727,73.6208485 L96.8811152,72.3312557 C97.4185697,72.3058175 97.7776,72.0989206 97.7776,71.5426732 C97.7776,70.8328278 97.2668121,70.6288381 96.4437818,70.6288381 L95.2706909,70.6288381 L95.2706909,73.6208485 L96.0326303,73.6208485 L96.0326303,72.3719567 Z" id="Fill-20" fill="#000000"></path>
                        <polygon id="Fill-22" fill="#000000" points="16.4205818 43.4327485 14.5134303 40.7995371 27.8729455 40.7995371 29.9907636 43.4327485"></polygon>
                        <path d="M16.5168,43.2444335 L29.5975273,43.2444335 L27.7827394,40.987949 L14.8823758,40.987949 L16.5168,43.2444335 Z M30.3837091,43.6211603 L16.3243152,43.6211603 L14.1446788,40.6112222 L27.9633455,40.6112222 L30.3837091,43.6211603 Z" id="Fill-24" fill="#000000"></path>
                        <polygon id="Fill-26" fill="#000000" points="28.0806061 47.6201577 29.9892121 44.9867041 16.6318788 44.9867041 14.5104242 47.6201577"></polygon>
                        <path d="M14.9038788,47.4319397 L27.9846061,47.4319397 L29.6202424,45.1749706 L16.7220606,45.1749706 L14.9038788,47.4319397 Z M28.1766061,47.8084242 L14.1169697,47.8084242 L16.541697,44.7982438 L30.3584242,44.7982438 L28.1766061,47.8084242 Z" id="Fill-28" fill="#000000"></path>
                        <polygon id="Fill-30" fill="#FFFFFF" points="36.1702061 44.9694062 14.5134788 44.9694062 14.5134788 43.4327 34.8846303 43.4327"></polygon>
                        <path d="M14.7646788,44.718368 L35.6328,44.718368 L34.7673455,43.6836412 L14.7646788,43.6836412 L14.7646788,44.718368 Z M36.7077091,45.2203474 L14.2623758,45.2203474 L14.2623758,43.1816619 L35.0020121,43.1816619 L36.7077091,45.2203474 Z" id="Fill-32" fill="#000000"></path>
                        <polygon id="Fill-34" fill="#FFFFFF" points="68.7514182 44.9694062 71.1065697 44.9694062 71.0702061 43.4327 68.7514182 43.4327"></polygon>
                        <path d="M69.0025939,44.718368 L70.8493818,44.718368 L70.824897,43.6836412 L69.0025939,43.6836412 L69.0025939,44.718368 Z M71.3638061,45.2203474 L68.5002909,45.2203474 L68.5002909,43.1816619 L71.3155636,43.1816619 L71.3638061,45.2203474 Z" id="Fill-36" fill="#000000"></path>
                        <polygon id="Fill-38" fill="#FFFFFF" points="54.9769212 44.9694062 58.6894061 44.9694062 58.6894061 43.4327 53.9771636 43.4327"></polygon>
                        <path d="M55.1132848,44.718368 L58.4383758,44.718368 L58.4383758,43.6836412 L54.4403152,43.6836412 L55.1132848,44.718368 Z M58.9406788,45.2203474 L54.8405576,45.2203474 L53.5140121,43.1816619 L58.9406788,43.1816619 L58.9406788,45.2203474 Z" id="Fill-40" fill="#000000"></path>
                        <polygon id="Fill-42" fill="#FFFFFF" points="81.2043152 43.4327485 91.4814061 43.4327485 101.655467 43.4327485 104.294982 43.4327485 114.358497 43.4327485 119.887709 43.4327485 129.9568 43.4327485 140.798982 43.4327485 152.614497 43.4327485 161.715345 43.4327485 167.390012 43.4327485 167.390012 44.9694546 161.748073 44.9694546 153.647952 44.9694546 139.729891 44.9694546 129.9568 44.9694546 119.887709 44.9694546 114.358497 44.9694546 104.294982 44.9694546 101.655467 44.9694546 91.4814061 44.9694546 81.2043152 44.9694546"></polygon>
                        <mask id="mask-4" fill="white">
                            <use xlink:href="#path-3"></use>
                        </mask>
                        <g id="Clip-45"></g>
                        <path d="M81.4555152,44.7183196 L167.138909,44.7183196 L167.138909,43.6835928 L81.4555152,43.6835928 L81.4555152,44.7183196 Z M80.9532121,45.2205412 L167.641212,45.2205412 L167.641212,43.1818557 L80.9532121,43.1818557 L80.9532121,45.2205412 Z" id="Fill-44" fill="#000000" mask="url(#mask-4)"></path>
                        <polygon id="Fill-46" fill="#000000" mask="url(#mask-4)" points="167.385527 43.9984443 171.262133 44.2506454 176.895588 44.2506454 159.236436 40.2617021 161.865527 43.6355268"></polygon>
                        <path d="M167.397842,43.8105897 L171.274448,44.0627907 L175.208024,44.0625485 L159.70863,40.561533 L161.962206,43.4532443 L167.397842,43.8105897 Z M176.895539,44.4387907 L171.262085,44.4387907 L161.768994,43.8178577 L158.764145,39.9619196 L176.936994,44.0671515 L176.895539,44.4387907 Z" id="Fill-47" fill="#000000" mask="url(#mask-4)"></path>
                        <polygon id="Fill-48" fill="#000000" mask="url(#mask-4)" points="176.895467 44.2506454 159.236315 48.2403155 161.865648 44.8660062 171.262255 44.2506454"></polygon>
                        <path d="M161.96223,45.0483129 L159.708655,47.9405088 L175.207806,44.4387665 L171.262109,44.4387665 L161.96223,45.0483129 Z M158.76417,48.5401222 L161.769018,44.6836995 L171.249988,44.0627665 L176.895564,44.062282 L176.937018,44.4341634 L158.76417,48.5401222 Z" id="Fill-49" fill="#000000" mask="url(#mask-4)"></path>
                        <path d="M33.2590061,64.7287876 C33.2723394,66.2485351 35.164703,66.8452412 37.3024,66.8452412 C39.3501576,66.8452412 41.3584,66.3616742 41.3584,64.8613082 C41.3584,63.7849113 40.0027636,63.3912258 38.6585212,63.1470196 C37.3024,62.906932 35.9581576,62.8194732 35.9581576,62.3690969 C35.9581576,61.9754113 36.6124606,61.8608186 37.1334303,61.8608186 C37.8769455,61.8608186 38.6718545,62.0325866 38.6318545,62.575267 L41.0590061,62.575267 C41.0439758,61.2377052 39.1804606,60.6637722 37.3297939,60.6637722 C35.580703,60.6637722 33.5314909,61.1713237 33.5314909,62.4635814 C33.5314909,63.5552412 34.9295515,63.9385093 36.2587636,64.1766588 C37.6010667,64.4211072 38.9324606,64.5206794 38.9324606,65.0439784 C38.9324606,65.4858753 38.1782788,65.6515866 37.4459152,65.6515866 C36.4141576,65.6515866 35.7370667,65.4253082 35.6842182,64.7287876 L33.2590061,64.7287876 Z" id="Fill-50" fill="#000000" mask="url(#mask-4)"></path>
                        <polygon id="Fill-51" fill="#000000" mask="url(#mask-4)" points="51.1054788 60.7900423 43.1268121 60.7900423 43.1268121 62.1181557 45.9025697 62.1181557 45.9025697 66.7222175 48.3282667 66.7222175 48.3282667 62.1181557 51.1054788 62.1181557"></polygon>
                        <polygon id="Fill-52" fill="#000000" mask="url(#mask-4)" points="53.4106182 66.7223144 60.9628606 66.7223144 60.9628606 65.3903247 55.8363152 65.3903247 55.8363152 64.2613557 60.4016485 64.2613557 60.4016485 63.0635825 55.8363152 63.0635825 55.8363152 62.026433 60.8317091 62.026433 60.8317091 60.7901392 53.4106182 60.7901392"></polygon>
                        <polygon id="Fill-53" fill="#000000" mask="url(#mask-4)" points="63.5724364 66.7223144 71.1261333 66.7223144 71.1261333 65.3903247 65.9983758 65.3903247 65.9983758 64.2613557 70.5641939 64.2613557 70.5641939 63.0635825 65.9983758 63.0635825 65.9983758 62.026433 70.9952242 62.026433 70.9952242 60.7901392 63.5724364 60.7901392"></polygon>
                        <polygon id="Fill-54" fill="#000000" mask="url(#mask-4)" points="73.7363879 66.7223144 80.5077818 66.7223144 80.5077818 65.3903247 76.1637818 65.3903247 76.1637818 60.7901392 73.7363879 60.7901392"></polygon>
                        <path d="M96.9255515,62.9070531 C96.8571879,61.4747644 94.6765818,60.663651 92.668097,60.663651 C89.8535515,60.663651 88.0254303,62.0327077 88.0254303,63.7545067 C88.0254303,65.4736407 89.8535515,66.8453624 92.668097,66.8453624 C95.0312485,66.8453624 96.7902788,65.950182 96.9255515,64.4212284 L94.4971879,64.4212284 C94.4057939,65.1012747 93.7497939,65.5189448 92.6188848,65.5189448 C91.0533091,65.5189448 90.4533091,64.6336974 90.4533091,63.7545067 C90.4533091,62.8738624 91.0533091,61.9934603 92.6188848,61.9934603 C93.6368242,61.9934603 94.3624,62.3098624 94.4971879,62.9070531 L96.9255515,62.9070531 Z" id="Fill-55" fill="#000000" mask="url(#mask-4)"></path>
                        <path d="M101.511006,63.7545309 C101.511006,62.8738866 102.111006,61.9932423 103.677067,61.9932423 C105.24337,61.9932423 105.842642,62.8738866 105.842642,63.7545309 C105.842642,64.6337216 105.24337,65.5189691 103.677067,65.5189691 C102.111006,65.5189691 101.511006,64.6337216 101.511006,63.7545309 M99.0799758,63.7545309 C99.0799758,65.4736649 100.741309,66.8453866 103.677067,66.8453866 C106.61137,66.8453866 108.269794,65.4736649 108.269794,63.7545309 C108.269794,62.032732 106.61137,60.6636753 103.677067,60.6636753 C100.741309,60.6636753 99.0799758,62.032732 99.0799758,63.7545309" id="Fill-56" fill="#000000" mask="url(#mask-4)"></path>
                        <polygon id="Fill-57" fill="#000000" mask="url(#mask-4)" points="110.816873 66.7223144 113.0976 66.7223144 113.0976 62.2166134 113.12257 62.2166134 115.078691 66.7223144 116.933479 66.7223144 118.892994 62.2166134 118.915297 62.2166134 118.915297 66.7223144 121.201842 66.7223144 121.201842 60.7901392 117.625842 60.7901392 116.019782 64.7439536 115.996024 64.7439536 114.389721 60.7901392 110.816873 60.7901392"></polygon>
                        <path d="M126.513624,62.0264572 L128.140776,62.0264572 C128.889867,62.0264572 129.450594,62.2527356 129.450594,62.8077716 C129.450594,63.3475448 128.902958,63.5462046 128.140776,63.5462046 L126.513624,63.5462046 L126.513624,62.0264572 Z M124.090109,66.7223387 L126.513624,66.7223387 L126.513624,64.7439778 L128.509745,64.7439778 C130.555321,64.7439778 131.874352,64.1690758 131.874352,62.7021428 C131.874352,61.2935964 130.244291,60.7899211 128.509745,60.7899211 L124.090109,60.7899211 L124.090109,66.7223387 Z" id="Fill-58" fill="#000000" mask="url(#mask-4)"></path>
                        <path d="M132.343152,66.7223144 L134.833818,66.7223144 L135.417091,65.6604536 L138.667273,65.6604536 L139.241818,66.7223144 L141.774182,66.7223144 L138.28303,60.7901392 L135.825333,60.7901392 L132.343152,66.7223144 Z M137.03697,62.4353814 L137.063879,62.4353814 L138.095636,64.5145258 L135.984606,64.5145258 L137.03697,62.4353814 Z" id="Fill-59" fill="#000000" mask="url(#mask-4)"></path>
                        <polygon id="Fill-60" fill="#000000" mask="url(#mask-4)" points="143.67697 66.7223144 145.960121 66.7223144 145.960121 63.023366 145.988485 63.023366 149.217333 66.7223144 151.709697 66.7223144 151.709697 60.7901392 149.427515 60.7901392 149.427515 64.4454794 149.403515 64.4454794 146.166182 60.7901392 143.67697 60.7901392"></polygon>
                        <polygon id="Fill-61" fill="#000000" mask="url(#mask-4)" points="162.715782 60.7900423 159.964267 60.7900423 158.109479 63.1993979 156.258812 60.7900423 153.506812 60.7900423 156.900509 64.5144289 156.900509 66.7222175 159.326933 66.7222175 159.326933 64.5144289"></polygon>
                    </g>
                </g>
            </g>
        </g>
    </g>
</svg>